<svg id="Layer_1" data-name="Layer 1" xmlns="http://www.w3.org/2000/svg" viewBox="0 0 62.67 19.21"><defs><style>.cls-1{fill:#fff;}.cls-2{fill:#f9a51a;}</style></defs><polygon class="cls-1" points="22.08 18.94 25.25 0.32 30.32 0.32 27.15 18.94 22.08 18.94 22.08 18.94"/><path class="cls-1" d="M45.55.78A13.07,13.07,0,0,0,41,0c-5,0-8.54,2.52-8.57,6.14,0,2.68,2.52,4.17,4.44,5.06s2.64,1.49,2.63,2.31c0,1.25-1.58,1.82-3,1.82a10.74,10.74,0,0,1-4.78-1l-.65-.3-.71,4.17a15.93,15.93,0,0,0,5.65,1c5.33,0,8.79-2.49,8.83-6.36,0-2.11-1.33-3.72-4.26-5-1.77-.86-2.86-1.44-2.85-2.31s.92-1.6,2.91-1.6a9.18,9.18,0,0,1,3.79.71l.46.22.69-4Z"/><path class="cls-1" d="M58.56.34H54.64A2.52,2.52,0,0,0,52,1.88L44.45,18.94h5.33s.86-2.29,1.06-2.79h6.5c.15.66.62,2.79.62,2.79h4.71L58.56.34Zm-6.26,12c.42-1.07,2-5.2,2-5.2s.42-1.08.68-1.78L55.34,7s1,4.45,1.17,5.38Z"/><path class="cls-1" d="M17.82.34,12.85,13l-.53-2.58a14.54,14.54,0,0,0-7-7.81L9.84,18.92h5.37l8-18.58Z"/><path class="cls-2" d="M8.25.33H.06L0,.71C6.36,2.25,10.58,6,12.32,10.45L10.55,1.9A2.12,2.12,0,0,0,8.25.33Z"/></svg>