<svg width="164" height="18" viewBox="0 0 164 18" fill="none" xmlns="http://www.w3.org/2000/svg">
<path d="M160.975 12.1135C156.479 11.6071 152.267 11.026 148.17 10.4201C147.839 10.4533 147.588 10.5031 147.177 10.3952L146.252 10.113L144.472 9.83074L143.833 9.76433H143.821C143.467 9.76433 143.547 9.83074 143.741 9.92205L144.335 10.1545C144.232 10.1047 143.935 10.0051 143.741 9.92205C143.479 9.83074 143.171 9.74773 142.805 9.67302C142.246 9.61492 141.687 9.5485 141.093 9.43229C141.767 9.4904 142.338 9.56511 142.805 9.67302L143.833 9.76433H144.141L140.066 9.10026L139.21 9.00066C138.217 8.90105 137.213 8.80144 136.665 8.51921L135.946 8.39469L136.072 8.4528L135.809 8.3781L132.739 7.83854L130.627 7.73062C130.627 7.73062 130.205 7.52311 129.988 7.4235C129.68 7.4733 129.258 7.47331 128.79 7.43181C129.303 7.63933 129.771 7.84684 130.217 8.00455C130.856 8.31168 131.871 7.86345 132.591 8.36149C131.883 7.86345 130.856 8.31168 130.217 8.00455C129.771 7.84684 129.303 7.63933 128.79 7.43181C127.797 7.3488 126.553 7.07487 125.606 6.71794C126.907 6.75114 127.922 7.08317 128.79 7.43181C129.258 7.47331 129.68 7.4733 129.988 7.4235C130.194 7.52311 130.627 7.73062 130.627 7.73062L132.739 7.83854L126.644 6.75943C113.348 4.3854 100.998 2.3434 86.8459 0.85756C79.2104 0.0108775 71.5292 -0.254741 64.1904 0.26821C49.433 1.26431 36.8327 4.82534 22.7372 8.12076C17.2931 9.39079 7.9113 12.9186 3.15194 14.7697C-2.85148 17.7082 1.497 18.0236 1.87364 17.9987C6.76996 17.8659 9.33796 15.9152 18.0007 13.8898C12.1571 15.3674 21.5502 11.5656 27.4623 10.9181C35.8968 9.95525 46.5226 5.99577 56.6576 4.90006C59.1686 4.60953 61.805 4.25259 64.7953 3.97036C80.2033 2.89126 94.8124 4.78384 111.385 7.21598C115.767 7.88004 119.716 8.13736 123.471 8.5358C126.188 8.90104 129.03 9.55681 131.221 9.90544C134.679 10.4616 137.715 10.777 140.614 11.0509C137.396 10.6193 135.033 10.3786 131.461 9.86394C129.087 9.507 133.252 9.63152 134.862 9.76433C135.558 9.78093 136.494 10.3786 137.19 10.3952C138.662 10.6193 140.055 10.6608 141.653 10.7853C142.349 10.7936 142.155 11.1755 142.509 11.1838C144.689 11.4079 146.481 11.1506 147.816 11.4577C148.843 11.6652 149.779 11.8478 150.681 12.0304L152.45 12.2961L153.648 12.3542C153.363 12.1882 153.294 12.0305 153.226 11.8644C153.294 12.0305 153.374 12.1882 153.648 12.3542C156.547 12.5036 159.88 12.6779 162.961 12.8605L162.927 12.819C161.135 12.6696 159.4 12.404 157.62 11.9474C158.396 12.1301 158.271 12.2297 157.357 12.1384L156.707 11.8561C158.328 11.9391 159.925 12.0138 161.364 12.4787C161.364 12.4787 162.06 12.4787 162.414 12.4704C162.904 12.5783 162.859 12.6945 162.939 12.8107L164 12.8854C163.292 12.6198 161.01 12.1052 161.01 12.0969L160.975 12.1135Z" fill="#892020"/>
</svg>
